<svg width="14" height="14" viewBox="0 0 14 14" fill="none" xmlns="http://www.w3.org/2000/svg">
<path fill-rule="evenodd" clip-rule="evenodd" d="M12.9637 0.333374L13.6262 12.2594C13.6671 12.9947 13.1042 13.6238 12.3689 13.6647C12.3504 13.6655 12.3412 13.6659 12.332 13.6662C12.3284 13.6663 12.3248 13.6664 12.3208 13.6664C12.3142 13.6665 12.3063 13.6666 12.295 13.6667H1.70443C0.968047 13.6667 0.371094 13.0698 0.371094 12.3334C0.371436 12.2964 0.371436 12.2964 0.373147 12.2594L1.0357 0.333374H12.9637ZM2.29702 1.66671L1.70443 12.3334H12.295L11.7024 1.66671H2.29702ZM4.9997 3.00004H3.66636V4.66671C3.66636 6.26717 5.21519 7.66671 6.99969 7.66671C8.7842 7.66671 10.333 6.26717 10.333 4.66671V3.00004H8.99969V4.66671C8.99969 5.49896 8.07627 6.33337 6.99969 6.33337C5.92312 6.33337 4.9997 5.49896 4.9997 4.66671V3.00004Z" fill="#040E10"/>
</svg>
