<svg width="69" height="48" viewBox="0 0 69 48" fill="none" xmlns="http://www.w3.org/2000/svg">
<g clip-path="url(#clip0_1_503)">
<path d="M51.3469 7.85691C48.4853 6.15538 45.1338 5.28531 41.8929 5.4077C41.1813 5.42948 41.0556 5.41707 41.0923 5.3168C41.1148 5.24864 41.1982 4.93767 41.2702 4.6191C41.4312 3.90957 41.3555 3.64666 40.9183 3.49168C40.5967 3.37558 40.353 3.44842 40.1599 3.72416C39.9627 4.00581 40.156 3.31009 33.0294 29.4269C32.2722 32.1863 31.6423 34.5479 31.6301 34.6732C31.5322 35.3766 32.4215 35.7478 32.8238 35.1733C32.9264 35.0268 33.4127 33.3618 34.2886 30.1571L35.5996 25.3607L36.0779 25.301C37.6234 25.1075 39.8051 25.2509 41.1355 25.6283C42.1379 25.9105 42.7408 26.2239 43.7028 26.9475C44.6998 27.7044 45.5451 28.5229 46.3947 29.5623C47.9306 31.4433 48.3632 31.8805 49.4819 32.6554C50.7094 33.5149 51.8132 34.036 53.3949 34.4975C54.359 34.7864 55.2915 34.9528 55.556 34.8862C55.7554 34.8411 55.8185 34.751 61.2249 27.0658C64.6686 22.1597 66.7114 19.2184 66.7407 19.1046C66.8436 18.6818 66.4361 18.2453 65.9456 18.2624C64.6306 18.3067 62.8613 18.1251 61.6898 17.8333C60.8783 17.626 59.9284 17.2208 59.246 16.7933C58.1047 16.0865 57.4522 15.2686 55.9995 12.7412C54.6341 10.3769 53.405 9.08811 51.3469 7.85691ZM52.3061 10.2738C52.2988 10.3443 50.4695 15.3654 50.4261 15.4274C50.4142 15.4443 50.0684 15.2189 49.671 14.9238C48.859 14.3217 47.9351 13.7839 46.993 13.3677C46.3398 13.0782 44.9085 12.5458 44.739 12.5362C44.6646 12.5344 44.4405 13.3341 43.8703 15.6704C43.4533 17.3923 43.0907 18.8334 43.0631 18.8728C43.0338 18.9026 42.6133 18.8684 42.125 18.7864C41.0989 18.6219 39.8318 18.5738 38.5196 18.662C38.0171 18.6963 37.5669 18.7164 37.5252 18.704C37.4739 18.6933 37.81 17.3507 38.3429 15.3914L39.242 12.0938L39.5383 12.0662C40.5874 11.9701 42.3088 12.0761 43.7201 12.326C44.2043 12.4132 44.617 12.4591 44.6407 12.4254C44.6643 12.3916 44.9643 11.2084 45.3072 9.79558C45.6543 8.37728 45.963 7.21708 46.0069 7.21427C46.1083 7.20133 47.0331 7.46266 47.7063 7.69945C48.4367 7.95061 49.1541 8.26825 49.9473 8.68139C50.6108 9.02803 52.3084 10.1747 52.3061 10.2738ZM55.8074 15.1843C56.2695 15.9025 56.7161 16.475 57.1713 16.928C57.6931 17.453 58.7403 18.1862 59.4011 18.4894C59.6805 18.6179 59.9388 18.74 59.9726 18.7636C60.0064 18.7873 59.5665 19.5954 58.7453 20.9839C58.0351 22.19 57.4555 23.1857 57.4532 23.2009C57.4566 23.22 57.7501 23.3164 58.1081 23.416C58.8357 23.6232 60.2171 23.8437 61.0701 23.8958C61.3805 23.9201 61.6546 23.9357 61.6946 23.9385C61.725 23.943 60.9692 25.0584 60.0151 26.421L58.2762 28.9043L57.9168 28.8541C57.3639 28.7692 56.0676 28.4151 55.3659 28.1589C55.0234 28.0366 54.7246 27.9365 54.6998 27.9359C54.6806 27.9393 54.07 28.9552 53.3497 30.1878C52.6254 31.4259 52.0052 32.4436 51.9725 32.4543C51.7798 32.5376 49.666 31.1582 49.1824 30.6266C49.067 30.5037 49.0957 30.4147 50.0878 27.9794C50.6532 26.5964 51.1391 25.4595 51.1622 25.4505C51.1909 25.4454 51.494 25.708 51.8356 26.0228C52.1829 26.3415 52.6679 26.7398 52.9155 26.9132C53.3377 27.2088 54.5882 27.8914 54.6744 27.8762C54.7127 27.8694 57.395 23.32 57.3905 23.2665C57.3928 23.2513 57.1043 23.0997 56.7497 22.9354C55.5369 22.3547 54.5165 21.4388 53.7092 20.2191C53.5616 19.9982 53.4416 19.8219 53.4225 19.8253C53.4129 19.827 52.9044 21.0567 52.2902 22.5567C51.682 24.0607 51.158 25.288 51.1349 25.2971C51.1101 25.2965 50.7065 24.8544 50.2441 24.3039C49.7819 23.7537 49.1485 23.0163 48.836 22.672C48.5194 22.3328 48.2279 21.9944 48.1857 21.9228C48.1136 21.822 48.2797 21.309 49.2374 18.7069C49.8654 17.0068 50.3956 15.5908 50.4154 15.5626C50.5511 15.3806 51.6788 16.8502 52.7134 18.548C53.1028 19.1901 53.4308 19.7048 53.4401 19.7029C53.4593 19.6995 55.2894 15.2162 55.4399 14.8095C55.4641 14.7509 55.49 14.7019 55.5013 14.7097C55.5075 14.7141 55.6438 14.9271 55.8074 15.1843ZM47.63 21.4582C47.8652 21.6732 48.0651 21.8552 48.0725 21.8687C48.0742 21.8783 47.6548 23.0281 47.1463 24.4258C46.6321 25.8195 46.2043 27.0054 46.184 27.0583C46.1687 27.14 46.1045 27.1118 45.8634 26.8926C44.5177 25.6985 43.3494 24.9224 42.3132 24.5326C42.0067 24.4188 41.7541 24.3007 41.749 24.2719C41.7237 24.1283 43.0809 18.978 43.1384 18.9679C43.2533 18.9476 44.9944 19.6131 45.4673 19.8603C45.9184 20.0918 46.9402 20.8493 47.63 21.4582Z" fill="black"/>
</g>
<g clip-path="url(#clip1_1_503)">
<path d="M17.407 8.00386C20.2686 6.30233 23.6201 5.43225 26.861 5.55465C27.5727 5.57643 27.6983 5.56402 27.6616 5.46375C27.6391 5.39559 27.5557 5.08462 27.4837 4.76605C27.3227 4.05652 27.3984 3.79361 27.8356 3.63863C28.1572 3.52253 28.4009 3.59537 28.594 3.87111C28.7912 4.15276 28.5979 3.45703 35.7245 29.5739C36.4817 32.3332 37.1116 34.6948 37.1238 34.8202C37.2217 35.5235 36.3324 35.8948 35.9301 35.3202C35.8275 35.1738 35.3412 33.5087 34.4653 30.3041L33.1543 25.5076L32.676 25.448C31.1305 25.2545 28.9488 25.3978 27.6184 25.7753C26.616 26.0575 26.0131 26.3709 25.0511 27.0944C24.0541 27.8513 23.2089 28.6698 22.3592 29.7092C20.8233 31.5902 20.3907 32.0274 19.272 32.8024C18.0445 33.6619 16.9407 34.1829 15.359 34.6444C14.3949 34.9334 13.4624 35.0998 13.1979 35.0331C12.9985 34.9881 12.9354 34.898 7.52898 27.2128C4.08527 22.3066 2.04253 19.3653 2.01322 19.2515C1.91027 18.8287 2.3178 18.3923 2.8083 18.4094C4.12327 18.4536 5.89257 18.2721 7.06413 17.9802C7.87562 17.773 8.82548 17.3677 9.50793 16.9402C10.6492 16.2334 11.3017 15.4155 12.7544 12.8881C14.1198 10.5238 15.3489 9.23506 17.407 8.00386ZM16.4478 10.4208C16.4551 10.4912 18.2844 15.5124 18.3278 15.5743C18.3397 15.5912 18.6855 15.3658 19.0829 15.0708C19.895 14.4686 20.8188 13.9309 21.761 13.5146C22.4141 13.2252 23.8454 12.6927 24.0149 12.6831C24.0893 12.6814 24.3134 13.4811 24.8836 15.8173C25.3006 17.5393 25.6632 18.9803 25.6908 19.0197C25.7201 19.0496 26.1407 19.0154 26.6289 18.9333C27.655 18.7689 28.9221 18.7207 30.2343 18.8089C30.7368 18.8432 31.187 18.8633 31.2287 18.8509C31.28 18.8402 30.9439 17.4977 30.411 15.5383L29.5119 12.2407L29.2156 12.2131C28.1665 12.117 26.4451 12.2231 25.0338 12.4729C24.5496 12.5601 24.1369 12.6061 24.1132 12.5723C24.0896 12.5385 23.7896 11.3554 23.4467 9.94253C23.0996 8.52423 22.7909 7.36403 22.747 7.36122C22.6456 7.34828 21.7208 7.60961 21.0476 7.8464C20.3172 8.09756 19.5998 8.4152 18.8066 8.82834C18.1431 9.17498 16.4455 10.3216 16.4478 10.4208ZM12.9465 15.3313C12.4844 16.0494 12.0378 16.622 11.5826 17.075C11.0608 17.5999 10.0136 18.3332 9.3528 18.6363C9.07338 18.7648 8.8151 18.8869 8.7813 18.9106C8.7475 18.9342 9.1874 19.7423 10.0086 21.1309C10.7188 22.337 11.2984 23.3326 11.3007 23.3478C11.2973 23.367 11.0038 23.4634 10.6458 23.5629C9.91822 23.7701 8.5368 23.9907 7.6838 24.0427C7.37339 24.067 7.09931 24.0826 7.05931 24.0854C7.02889 24.09 7.78469 25.2053 8.73882 26.5679L10.4777 29.0513L10.8371 29.0011C11.39 28.9161 12.6864 28.5621 13.388 28.3059C13.7305 28.1836 14.0293 28.0834 14.0541 28.0829C14.0733 28.0862 14.6839 29.1022 15.4042 30.3347C16.1285 31.5729 16.7487 32.5905 16.7814 32.6012C16.9741 32.6846 19.0879 31.3052 19.5715 30.7735C19.6869 30.6507 19.6582 30.5617 18.6661 28.1263C18.1007 26.7433 17.6148 25.6065 17.5917 25.5974C17.563 25.5924 17.2599 25.8549 16.9183 26.1697C16.571 26.4884 16.086 26.8868 15.8384 27.0601C15.4162 27.3558 14.1657 28.0383 14.0795 28.0232C14.0412 28.0164 11.3589 23.467 11.3634 23.4135C11.3611 23.3982 11.6496 23.2467 12.0042 23.0823C13.217 22.5017 14.2374 21.5857 15.0447 20.366C15.1923 20.1452 15.3123 19.9688 15.3314 19.9722C15.341 19.9739 15.8495 21.2037 16.4637 22.7036C17.0719 24.2077 17.5959 25.435 17.619 25.444C17.6438 25.4434 18.0474 25.0013 18.5098 24.4509C18.972 23.9006 19.6054 23.1633 19.9179 22.8189C20.2345 22.4797 20.526 22.1413 20.5682 22.0698C20.6403 21.9689 20.4742 21.456 19.5165 18.8539C18.8885 17.1537 18.3583 15.7377 18.3386 15.7095C18.2028 15.5276 17.0751 16.9972 16.0405 18.695C15.6511 19.3371 15.3231 19.8517 15.3138 19.8499C15.2946 19.8465 13.4645 15.3631 13.314 14.9564C13.2898 14.8978 13.2639 14.8488 13.2526 14.8567C13.2464 14.861 13.1101 15.074 12.9465 15.3313ZM21.1239 21.6051C20.8887 21.8201 20.6888 22.0021 20.6814 22.0157C20.6798 22.0252 21.0991 23.1751 21.6077 24.5727C22.1218 25.9664 22.5496 27.1523 22.5699 27.2053C22.5852 27.2869 22.6494 27.2588 22.8905 27.0396C24.2362 25.8455 25.4045 25.0694 26.4407 24.6796C26.7472 24.5657 26.9998 24.4476 27.0049 24.4189C27.0302 24.2752 25.673 19.125 25.6155 19.1148C25.5006 19.0946 23.7595 19.76 23.2866 20.0072C22.8355 20.2387 21.8137 20.9962 21.1239 21.6051Z" fill="black"/>
</g>
<defs>
<clipPath id="clip0_1_503">
<rect width="34.3836" height="34.3836" fill="white" transform="translate(40.5889 0.113003) rotate(35)"/>
</clipPath>
<clipPath id="clip1_1_503">
<rect width="34.3836" height="34.3836" fill="white" transform="matrix(-0.819152 0.573576 0.573576 0.819152 28.165 0)"/>
</clipPath>
</defs>
</svg>
