<svg width="34" height="34" viewBox="0 0 34 34" fill="none" xmlns="http://www.w3.org/2000/svg">
<path d="M17 34C26.3888 34 34 26.3888 34 17C34 7.61116 26.3888 0 17 0C7.61116 0 0 7.61116 0 17C0 26.3888 7.61116 34 17 34Z" fill="#F0B90B"/>
<path fill-rule="evenodd" clip-rule="evenodd" d="M9.76521 12.6821L17.0073 5.44013L19.8949 8.32778L12.6529 15.5697L9.76521 12.6821ZM9.7703 21.3361L21.344 9.76282L24.2316 12.6505L12.6579 24.2237L9.7703 21.3361ZM25.6722 14.0992L14.0989 25.6724L16.9865 28.5601L28.5598 16.9864L25.6722 14.0988V14.0992ZM5.44019 17.006L8.32783 14.1183L11.2155 17.006L8.32783 19.8937L5.44019 17.006Z" fill="#FFFDFA"/>
</svg>
