<svg width="28" height="28" viewBox="0 0 28 28" fill="none" xmlns="http://www.w3.org/2000/svg">
<rect width="28" height="28" rx="14" fill="#040E10"/>
<path fill-rule="evenodd" clip-rule="evenodd" d="M19.9637 7.33333L20.6262 19.2594C20.6671 19.9946 20.1042 20.6238 19.3689 20.6646C19.3504 20.6655 19.3412 20.6659 19.332 20.6661C19.3284 20.6662 19.3248 20.6663 19.3208 20.6664C19.3142 20.6665 19.3063 20.6666 19.295 20.6667H8.70443C7.96805 20.6667 7.37109 20.0697 7.37109 19.3333C7.37144 19.2963 7.37144 19.2963 7.37315 19.2594L8.0357 7.33333H19.9637ZM9.29702 8.66666L8.70443 19.3333H19.295L18.7024 8.66666H9.29702ZM11.9997 10H10.6664V11.6667C10.6664 13.2671 12.2152 14.6667 13.9997 14.6667C15.7842 14.6667 17.333 13.2671 17.333 11.6667V10H15.9997V11.6667C15.9997 12.4989 15.0763 13.3333 13.9997 13.3333C12.9231 13.3333 11.9997 12.4989 11.9997 11.6667V10Z" fill="#FCED6D"/>
</svg>
