<svg width="11" height="12" viewBox="0 0 11 12" fill="none" xmlns="http://www.w3.org/2000/svg">
<path d="M1.5 11.5C1.5 9.35223 3.29086 7.61111 5.5 7.61111C7.70914 7.61111 9.5 9.35223 9.5 11.5H1.5Z" fill="#E05D54"/>
<path d="M7.78571 3.72222C7.78571 4.94952 6.76237 5.94444 5.5 5.94444C4.23763 5.94444 3.21429 4.94952 3.21429 3.72222C3.21429 2.49492 4.23763 1.5 5.5 1.5C6.76237 1.5 7.78571 2.49492 7.78571 3.72222Z" fill="#E05D54"/>
<path d="M1.5 11.5H0.5C0.5 12.0523 0.947715 12.5 1.5 12.5L1.5 11.5ZM9.5 11.5V12.5C10.0523 12.5 10.5 12.0523 10.5 11.5H9.5ZM6.78571 3.72222C6.78571 4.37087 6.23682 4.94444 5.5 4.94444V6.94444C7.28791 6.94444 8.78571 5.52817 8.78571 3.72222H6.78571ZM5.5 4.94444C4.76318 4.94444 4.21429 4.37087 4.21429 3.72222H2.21429C2.21429 5.52817 3.71209 6.94444 5.5 6.94444V4.94444ZM4.21429 3.72222C4.21429 3.07358 4.76318 2.5 5.5 2.5V0.5C3.71209 0.5 2.21429 1.91627 2.21429 3.72222H4.21429ZM5.5 2.5C6.23682 2.5 6.78571 3.07358 6.78571 3.72222H8.78571C8.78571 1.91627 7.28791 0.5 5.5 0.5V2.5ZM2.5 11.5C2.5 9.93088 3.8164 8.61111 5.5 8.61111V6.61111C2.76532 6.61111 0.5 8.77357 0.5 11.5H2.5ZM5.5 8.61111C7.1836 8.61111 8.5 9.93088 8.5 11.5H10.5C10.5 8.77357 8.23468 6.61111 5.5 6.61111V8.61111ZM1.5 12.5H9.5V10.5H1.5V12.5Z" fill="#E05D54"/>
</svg>
