<svg width="389" height="513" viewBox="0 0 389 513" fill="none" xmlns="http://www.w3.org/2000/svg">
<path fill-rule="evenodd" clip-rule="evenodd" d="M4.553 1.23502C3.453 1.86602 2.005 3.08902 1.335 3.95402C-0.445 6.25102 -0.445 505.796 1.335 508.114C3.868 511.412 6.883 512.027 20.537 512.027C34.662 512.027 39.075 511.019 40.432 507.482C40.773 506.592 41.053 460.905 41.053 405.956V306.05L212.14 305.788L383.226 305.527L385.64 302.721L388.053 299.915V164.926V29.936L385.598 27.482L383.144 25.027H212.098H41.053V15.609C41.053 4.55402 40.728 3.42802 36.981 1.49002C33.432 -0.345976 7.662 -0.547976 4.553 1.23502ZM25.053 256.027V495.027H20.553H16.053V256.027V17.027H20.553H25.053V256.027ZM206.053 82.527V124.027H247.553H289.053V82.516V41.005L330.303 41.266L371.553 41.527V82.527V123.527L330.303 123.788L289.053 124.049V165.027V206.005L330.303 206.266L371.553 206.527L371.814 247.777L372.075 289.027H330.564H289.053V247.516V206.005L247.803 206.266L206.553 206.527L206.292 247.777L206.031 289.027H165.042H124.053V247.527V206.027H82.553H41.053V165.027V124.027H82.553H124.053V82.527V41.027H165.053H206.053V82.527ZM124.053 165.027V206.027H165.053H206.053V165.027V124.027H165.053H124.053V165.027Z" fill="black"/>
</svg>
