<svg width="16" height="11" viewBox="0 0 16 11" fill="none" xmlns="http://www.w3.org/2000/svg">
<path d="M10.0309 10.866C10.6902 10.6103 11.3454 10.3467 12.0033 10.0911C12.0619 10.0685 12.1302 10.0607 12.1928 10.0591C12.6795 10.0571 13.1663 10.0571 13.6514 10.0571C14.1556 10.0571 14.4796 9.73285 14.4796 9.2233V7.55595C14.4796 7.43647 14.5759 7.342 14.6935 7.342L14.9037 7.3366C15.0706 7.3366 15.0804 7.27196 15.0856 7.15648L15.0898 6.18841C15.0898 6.09214 15.012 6.01409 14.9153 6.01409H14.6899C14.5702 6.01409 14.474 5.91742 14.474 5.79794L14.4812 3.77635C14.487 3.47694 14.3659 3.2706 14.1363 3.10549C13.7423 2.82129 12.5811 1.99712 12.3913 1.87584C12.2609 1.79038 12.1186 1.75636 11.9594 1.75836L9.95667 1.75636C9.78595 1.75636 9.64786 1.61806 9.64786 1.44754V1.3851C9.64786 1.21278 9.78795 1.07249 9.96047 1.07249H11.7757C11.9478 1.07249 12.0883 0.932389 12.0883 0.75987V0.39782C12.0883 0.225502 11.948 0.0852051 11.7757 0.0852051H5.74897C5.57645 0.0852051 5.43636 0.225302 5.43636 0.39782V0.75987C5.43636 0.932189 5.57645 1.07249 5.74897 1.07249H7.71352C7.88604 1.07249 8.02634 1.21278 8.02634 1.3851V1.45715C8.02634 1.62767 7.88804 1.76776 7.71513 1.76576L5.73156 1.75836C5.3523 1.74695 5.04188 1.87584 4.75369 2.08418C4.333 2.38919 3.92011 2.70381 3.50703 3.01843C3.40276 3.09788 3.27206 3.14151 3.14138 3.13951C2.7437 3.13551 2.34563 3.13551 1.94775 3.13951C1.45321 3.14331 1.13319 3.46153 1.12919 3.95807L1.13479 5.33922C1.13479 5.4565 1.03993 5.55317 0.920645 5.55317H0.735117C0.509562 5.55317 0.327637 5.7351 0.327637 5.96065V8.14916C0.327637 8.37451 0.509562 8.55624 0.735117 8.55624H0.915041C1.03252 8.55624 1.12899 8.65131 1.12899 8.77039C1.12899 9.0846 1.12699 9.67021 1.12899 10.009C1.12899 10.3239 1.12338 10.9149 1.69938 10.9149H9.77895C9.86421 10.9153 9.95327 10.8983 10.0309 10.866Z" fill="#FF0000"/>
</svg>
