<svg width="66" height="74" viewBox="0 0 66 74" fill="none" xmlns="http://www.w3.org/2000/svg">
<path fill-rule="evenodd" clip-rule="evenodd" d="M45.6875 4.12684H65.035V30.9749L45.6875 40.6486V4.12684ZM51.9813 10.4206V30.4651L58.7412 27.0851V10.4206H51.9813Z" fill="#FCED6D"/>
<path fill-rule="evenodd" clip-rule="evenodd" d="M0 4.12683H19.3475V40.6486L0 30.9749V4.12683ZM6.29377 10.4206V27.0851L13.0537 30.4651V10.4206H6.29377Z" fill="#FCED6D"/>
<path d="M54.113 0H10.9229V37.1349L27.3124 46.5976V68.1913H37.7232V46.5976L54.113 37.1349V0Z" fill="#FCED6D"/>
<path d="M32.5186 0V68.1913H37.7239V46.5976L54.1137 37.1349V0H32.5186Z" fill="#FCED6D"/>
<path d="M45.3705 63.84V55.8775H19.6634V63.84H8.30273V73.0643H56.7314V63.84H45.3705Z" fill="#FCED6D"/>
<path d="M45.3721 63.84V55.8775H32.5186V73.0643H56.733V63.84H45.3721Z" fill="#FCED6D"/>
</svg>
