<svg width="10" height="12" viewBox="0 0 10 12" fill="none" xmlns="http://www.w3.org/2000/svg">
<path d="M1 11.5C1 9.35223 2.79086 7.61111 5 7.61111C7.20914 7.61111 9 9.35223 9 11.5H1Z" fill="#616161"/>
<path d="M7.28571 3.72222C7.28571 4.94952 6.26237 5.94444 5 5.94444C3.73763 5.94444 2.71429 4.94952 2.71429 3.72222C2.71429 2.49492 3.73763 1.5 5 1.5C6.26237 1.5 7.28571 2.49492 7.28571 3.72222Z" fill="#616161"/>
<path d="M1 11.5H0C0 12.0523 0.447715 12.5 1 12.5L1 11.5ZM9 11.5V12.5C9.55229 12.5 10 12.0523 10 11.5H9ZM6.28571 3.72222C6.28571 4.37087 5.73682 4.94444 5 4.94444V6.94444C6.78791 6.94444 8.28571 5.52817 8.28571 3.72222H6.28571ZM5 4.94444C4.26318 4.94444 3.71429 4.37087 3.71429 3.72222H1.71429C1.71429 5.52817 3.21209 6.94444 5 6.94444V4.94444ZM3.71429 3.72222C3.71429 3.07358 4.26318 2.5 5 2.5V0.5C3.21209 0.5 1.71429 1.91627 1.71429 3.72222H3.71429ZM5 2.5C5.73682 2.5 6.28571 3.07358 6.28571 3.72222H8.28571C8.28571 1.91627 6.78791 0.5 5 0.5V2.5ZM2 11.5C2 9.93088 3.3164 8.61111 5 8.61111V6.61111C2.26532 6.61111 0 8.77357 0 11.5H2ZM5 8.61111C6.6836 8.61111 8 9.93088 8 11.5H10C10 8.77357 7.73468 6.61111 5 6.61111V8.61111ZM1 12.5H9V10.5H1V12.5Z" fill="#616161"/>
</svg>
