<svg width="16" height="16" viewBox="0 0 16 16" fill="none" xmlns="http://www.w3.org/2000/svg">
<path fill-rule="evenodd" clip-rule="evenodd" d="M8.00033 0.666656C12.0504 0.666656 15.3337 3.9499 15.3337 7.99999C15.3337 12.0501 12.0504 15.3333 8.00033 15.3333C3.95024 15.3333 0.666992 12.0501 0.666992 7.99999C0.666992 3.9499 3.95024 0.666656 8.00033 0.666656ZM2.04409 7.27159C2.23845 7.52035 2.77887 7.83864 3.60583 8.09833C3.93144 8.20058 4.28806 8.29047 4.67069 8.3668C4.66823 8.24524 4.66699 8.12295 4.66699 7.99999C4.66699 5.78156 5.0707 3.77819 5.77003 2.42819C3.7764 3.22693 2.31118 5.06465 2.04409 7.27159ZM4.75308 9.74054C3.68255 9.55446 2.76462 9.27284 2.06897 8.91051C2.39257 11.0361 3.8315 12.7951 5.77003 13.5718C5.25944 12.5861 4.90643 11.2522 4.75308 9.74054ZM6.1196 9.91821C6.71766 9.97209 7.34758 9.99999 8.00033 9.99999C8.64254 9.99999 9.27529 9.96359 9.88385 9.89608C9.58313 12.2945 8.75166 14 8.00033 14C7.25131 14 6.42264 12.3049 6.1196 9.91821ZM9.99119 8.53633C9.35815 8.61832 8.68569 8.66666 8.00033 8.66666C7.30417 8.66666 6.63593 8.63218 6.01054 8.5668C6.0038 8.38036 6.00033 8.1913 6.00033 7.99999C6.00033 4.65599 7.06273 1.99999 8.00033 1.99999C8.93792 1.99999 10.0003 4.65599 10.0003 7.99999C10.0003 8.18089 9.99722 8.35977 9.99119 8.53633ZM11.2531 9.68458C11.1029 11.2193 10.7475 12.574 10.2306 13.5718C12.2034 12.7814 13.6587 10.9737 13.9478 8.7976C13.241 9.16523 12.3101 9.47263 11.2531 9.68458ZM13.9527 7.24008C13.639 7.5922 12.6494 8.01048 11.3311 8.30274C11.3328 8.2023 11.3337 8.10137 11.3337 7.99999C11.3337 5.78156 10.93 3.77819 10.2306 2.42819C12.2147 3.22313 13.6755 5.04717 13.9527 7.24008Z" fill="white"/>
</svg>
