<svg width="97" height="32" viewBox="0 0 97 32" fill="none" xmlns="http://www.w3.org/2000/svg">
<g clip-path="url(#clip0_1_519)">
<path d="M25.1445 15.7164V4.09625L40.1264 4.13953C41.4441 4.13953 42.4099 4.46922 43.0238 5.12862C43.6379 5.77302 43.9449 6.62725 43.9449 7.69127V15.7164H40.6879V8.0959C40.6879 7.18175 40.2237 6.72466 39.2954 6.72466H36.1732V15.7164H32.9162V6.72466H28.4015V15.7164H25.1445Z" fill="white"/>
<path d="M46.0879 15.7166V4.13968H49.3449V15.7166H46.0879ZM46.0654 2.22892V-0.311249H49.3673V2.22892H46.0654Z" fill="white"/>
<path d="M51.5879 15.7157V4.13876H61.673C62.9907 4.13876 63.9491 4.46846 64.5482 5.12786C65.1621 5.77226 65.4691 6.62648 65.4691 7.69051V15.7157H62.2121V8.07265C62.2121 7.17349 61.7629 6.72389 60.8645 6.72389H54.8447V15.7157H51.5879Z" fill="white"/>
<path d="M73.6156 15.7161C72.3127 15.7161 71.3543 15.394 70.7404 14.7495C70.1265 14.0901 69.8195 13.2284 69.8195 12.1644V6.72437H66.4727V4.13924H69.8195V0.587494H73.0765V4.13924H77.8831V6.72437H73.0765V11.7598C73.0765 12.6739 73.5257 13.131 74.4241 13.131H78.5121V15.7161H73.6156Z" fill="white"/>
<path d="M-0.302734 31.9448V20.3888H14.6849C16.0032 20.3888 16.9694 20.7179 17.5836 21.3761C18.1977 22.0194 18.5048 22.8721 18.5048 23.9341V31.9448H15.2467V24.338C15.2467 23.4254 14.7822 22.9692 13.8535 22.9692H10.7301V31.9448H7.47196V22.9692H2.95545V31.9448H-0.302734Z" fill="white"/>
<path d="M26.1306 32.0567C24.1233 32.0567 22.5578 31.563 21.4343 30.5757C20.3108 29.5734 19.749 28.1074 19.749 26.1777C19.749 24.2329 20.3108 22.767 21.4343 21.7797C22.5578 20.7773 24.1233 20.2762 26.1306 20.2762H30.2876C32.2948 20.2762 33.8603 20.7773 34.9838 21.7797C36.1073 22.767 36.6691 24.2329 36.6691 26.1777C36.6691 28.1074 36.1073 29.5734 34.9838 30.5757C33.8603 31.563 32.2948 32.0567 30.2876 32.0567H26.1306ZM26.1306 29.4762H30.2876C31.2612 29.4762 32.0027 29.207 32.5121 28.6684C33.0363 28.1299 33.2986 27.2996 33.2986 26.1777C33.2986 25.0407 33.0363 24.2031 32.5121 23.6645C32.0027 23.126 31.2612 22.8567 30.2876 22.8567H26.1306C25.1569 22.8567 24.4078 23.126 23.8835 23.6645C23.3741 24.2031 23.1196 25.0407 23.1196 26.1777C23.1196 27.2996 23.3741 28.1299 23.8835 28.6684C24.4078 29.207 25.1569 29.4762 26.1306 29.4762Z" fill="white"/>
<path d="M44.4836 31.9439C43.1803 31.9439 42.2216 31.6224 41.6074 30.979C40.9931 30.3209 40.686 29.4606 40.686 28.3986V22.9683H37.3379V20.3879H40.686V16.8425H43.9443V20.3879H48.753V22.9683H43.9443V27.9947C43.9443 28.9072 44.3937 29.3634 45.2925 29.3634H49.3821V31.9439H44.4836Z" fill="white"/>
<path d="M56.3151 32.0567C54.3077 32.0567 52.7424 31.563 51.6189 30.5757C50.4954 29.5734 49.9336 28.1074 49.9336 26.1777C49.9336 24.2329 50.4954 22.767 51.6189 21.7797C52.7424 20.7773 54.3077 20.2762 56.3151 20.2762H60.4721C62.4794 20.2762 64.0449 20.7773 65.1684 21.7797C66.2919 22.767 66.8537 24.2329 66.8537 26.1777C66.8537 28.1074 66.2919 29.5734 65.1684 30.5757C64.0449 31.563 62.4794 32.0567 60.4721 32.0567H56.3151ZM56.3151 29.4762H60.4721C61.4458 29.4762 62.1873 29.207 62.6967 28.6684C63.2209 28.1299 63.4831 27.2996 63.4831 26.1777C63.4831 25.0407 63.2209 24.2031 62.6967 23.6645C62.1873 23.126 61.4458 22.8567 60.4721 22.8567H56.3151C55.3413 22.8567 54.5924 23.126 54.0681 23.6645C53.5587 24.2031 53.3041 25.0407 53.3041 26.1777C53.3041 27.2996 53.5587 28.1299 54.0681 28.6684C54.5924 29.207 55.3413 29.4762 56.3151 29.4762Z" fill="white"/>
<path d="M68.207 31.9448V20.3888H77.0603C78.3636 20.3888 79.3224 20.7179 79.9365 21.3761C80.5506 22.0194 80.8578 22.8721 80.8578 23.9341V26.3351H77.5546V24.338C77.5546 23.4405 77.1052 22.9917 76.2064 22.9917H71.5102V31.9448H68.207Z" fill="white"/>
<path d="M81.5899 32.0567V29.4762H92.6003C93.2295 29.4762 93.5441 29.1246 93.5441 28.4216C93.5441 27.7334 93.2295 27.3894 92.6003 27.3894H85.4773C84.1439 27.3894 83.1327 27.0903 82.4438 26.4918C81.7546 25.8786 81.4102 25.0035 81.4102 23.8665C81.4102 22.7147 81.7546 21.8319 82.4438 21.2187C83.1478 20.5904 84.1589 20.2762 85.4773 20.2762H95.7237V22.8567H85.6346C84.9903 22.8567 84.6683 23.1709 84.6683 23.7992C84.6683 24.1133 84.7582 24.3601 84.938 24.5396C85.1177 24.7192 85.3499 24.8089 85.6346 24.8089H93.1846C94.353 24.8089 95.2442 25.1156 95.8585 25.7289C96.4877 26.3274 96.8023 27.2025 96.8023 28.3543C96.8023 29.5211 96.4877 30.4337 95.8585 31.0918C95.2293 31.7351 94.338 32.0567 93.1846 32.0567H81.5899Z" fill="white"/>
<path fill-rule="evenodd" clip-rule="evenodd" d="M3.59728 15.5161L9.43593 4.09625H5.82464L-0.134766 15.5161H3.59728Z" fill="white"/>
<path fill-rule="evenodd" clip-rule="evenodd" d="M10.4196 15.5161L16.2582 4.09625H12.6469L6.6875 15.5161H10.4196Z" fill="white"/>
<path fill-rule="evenodd" clip-rule="evenodd" d="M19.6687 4.09625L13.8301 15.5161H17.4414L23.28 4.09625H19.6687Z" fill="white"/>
<path fill-rule="evenodd" clip-rule="evenodd" d="M3.59728 15.5161L9.43593 4.09625H5.82464L-0.134766 15.5161H3.59728Z" fill="#ED7156"/>
<path fill-rule="evenodd" clip-rule="evenodd" d="M10.4186 15.5161L16.2572 4.09625H12.6459L6.68652 15.5161H10.4186Z" fill="#ED7156"/>
<path fill-rule="evenodd" clip-rule="evenodd" d="M19.6677 4.09625L13.8291 15.5161H17.4404L23.279 4.09625H19.6677Z" fill="#ED7156"/>
</g>
<defs>
<clipPath id="clip0_1_519">
<rect width="96.64" height="32" fill="white"/>
</clipPath>
</defs>
</svg>
